<svg xmlns="http://www.w3.org/2000/svg" xmlns:xlink="http://www.w3.org/1999/xlink" width="606" zoomAndPan="magnify" viewBox="0 0 454.5 89.249998" height="119" preserveAspectRatio="xMidYMid meet" version="1.0"><defs><g/><clipPath id="a86fd04ab4"><path d="M 1.644531 0 L 451.992188 0 L 451.992188 88.140625 L 1.644531 88.140625 Z M 1.644531 0 " clip-rule="nonzero"/></clipPath><clipPath id="58e10f2703"><path d="M 45.714844 0 L 407.917969 0 C 419.605469 0 430.816406 4.644531 439.082031 12.90625 C 447.347656 21.171875 451.988281 32.382812 451.988281 44.070312 C 451.988281 55.757812 447.347656 66.96875 439.082031 75.234375 C 430.816406 83.496094 419.605469 88.140625 407.917969 88.140625 L 45.714844 88.140625 C 34.027344 88.140625 22.820312 83.496094 14.554688 75.234375 C 6.289062 66.96875 1.644531 55.757812 1.644531 44.070312 C 1.644531 32.382812 6.289062 21.171875 14.554688 12.90625 C 22.820312 4.644531 34.027344 0 45.714844 0 Z M 45.714844 0 " clip-rule="nonzero"/></clipPath><clipPath id="8c0efc192a"><path d="M 1.660156 0 L 452 0 L 452 88.507812 L 1.660156 88.507812 Z M 1.660156 0 " clip-rule="nonzero"/></clipPath><clipPath id="5d5bac87ba"><path d="M 45.726562 0 L 407.902344 0 C 419.589844 0 430.800781 4.644531 439.0625 12.90625 C 447.328125 21.171875 451.972656 32.378906 451.972656 44.066406 C 451.972656 55.753906 447.328125 66.964844 439.0625 75.226562 C 430.800781 83.492188 419.589844 88.132812 407.902344 88.132812 L 45.726562 88.132812 C 34.042969 88.132812 22.832031 83.492188 14.566406 75.226562 C 6.304688 66.964844 1.660156 55.753906 1.660156 44.066406 C 1.660156 32.378906 6.304688 21.171875 14.566406 12.90625 C 22.832031 4.644531 34.042969 0 45.726562 0 Z M 45.726562 0 " clip-rule="nonzero"/></clipPath></defs><g clip-path="url(#a86fd04ab4)"><g clip-path="url(#58e10f2703)"><path fill="#b5cedb" d="M 1.644531 0 L 451.992188 0 L 451.992188 88.140625 L 1.644531 88.140625 Z M 1.644531 0 " fill-opacity="1" fill-rule="nonzero"/></g></g><g clip-path="url(#8c0efc192a)"><g clip-path="url(#5d5bac87ba)"><path stroke-linecap="butt" transform="matrix(0.74375, 0, 0, 0.74375, 1.661275, 0.000000991667)" fill="none" stroke-linejoin="miter" d="M 59.247449 -0.00000133333 L 546.206514 -0.00000133333 C 561.9208 -0.00000133333 576.994331 6.244747 588.102525 17.352941 C 599.215971 28.466387 605.460719 43.534665 605.460719 59.248952 C 605.460719 74.963239 599.215971 90.036769 588.102525 101.144963 C 576.994331 112.258409 561.9208 118.497905 546.206514 118.497905 L 59.247449 118.497905 C 43.538414 118.497905 28.464884 112.258409 17.351438 101.144963 C 6.243244 90.036769 -0.00150452 74.963239 -0.00150452 59.248952 C -0.00150452 43.534665 6.243244 28.466387 17.351438 17.352941 C 28.464884 6.244747 43.538414 -0.00000133333 59.247449 -0.00000133333 Z M 59.247449 -0.00000133333 " stroke="#425b69" stroke-width="20" stroke-opacity="1" stroke-miterlimit="4"/></g></g><g fill="#5d7480" fill-opacity="1"><g transform="translate(128.380503, 57.457975)"><g><path d="M 13.390625 -25.921875 C 15.242188 -25.921875 16.828125 -25.582031 18.140625 -24.90625 C 19.460938 -24.226562 20.457031 -23.273438 21.125 -22.046875 C 21.800781 -20.828125 22.140625 -19.40625 22.140625 -17.78125 C 22.140625 -16.164062 21.800781 -14.75 21.125 -13.53125 C 20.457031 -12.3125 19.460938 -11.359375 18.140625 -10.671875 C 16.828125 -9.992188 15.242188 -9.65625 13.390625 -9.65625 L 8.5 -9.65625 L 8.5 0 L 3.375 0 L 3.375 -25.921875 Z M 12.71875 -13.71875 C 15.5625 -13.71875 16.984375 -15.070312 16.984375 -17.78125 C 16.984375 -20.5 15.5625 -21.859375 12.71875 -21.859375 L 8.5 -21.859375 L 8.5 -13.71875 Z M 12.71875 -13.71875 "/></g></g></g><g fill="#5d7480" fill-opacity="1"><g transform="translate(152.070964, 57.457975)"><g><path d="M 2.8125 0 L 2.8125 -19.5625 L 7.59375 -19.5625 L 7.59375 -16.65625 L 7.96875 -16.578125 C 8.4375 -17.660156 9.050781 -18.457031 9.8125 -18.96875 C 10.582031 -19.476562 11.519531 -19.734375 12.625 -19.734375 C 13.738281 -19.734375 14.582031 -19.546875 15.15625 -19.171875 L 14.328125 -14.921875 L 13.953125 -14.859375 C 13.628906 -14.984375 13.320312 -15.078125 13.03125 -15.140625 C 12.738281 -15.203125 12.378906 -15.234375 11.953125 -15.234375 C 10.578125 -15.234375 9.53125 -14.75 8.8125 -13.78125 C 8.09375 -12.820312 7.734375 -11.28125 7.734375 -9.15625 L 7.734375 0 Z M 2.8125 0 "/></g></g></g><g fill="#5d7480" fill-opacity="1"><g transform="translate(167.409479, 57.457975)"><g><path d="M 19.328125 -8.671875 L 6.75 -8.671875 C 6.894531 -6.960938 7.378906 -5.722656 8.203125 -4.953125 C 9.035156 -4.179688 10.164062 -3.796875 11.59375 -3.796875 C 12.71875 -3.796875 13.628906 -4.003906 14.328125 -4.421875 C 15.023438 -4.835938 15.585938 -5.472656 16.015625 -6.328125 L 16.390625 -6.328125 L 19.640625 -4.234375 C 19.003906 -2.867188 18.039062 -1.757812 16.75 -0.90625 C 15.46875 -0.0507812 13.75 0.375 11.59375 0.375 C 9.570312 0.375 7.828125 -0.0078125 6.359375 -0.78125 C 4.890625 -1.550781 3.753906 -2.691406 2.953125 -4.203125 C 2.148438 -5.722656 1.75 -7.578125 1.75 -9.765625 C 1.75 -11.992188 2.164062 -13.867188 3 -15.390625 C 3.84375 -16.910156 4.976562 -18.046875 6.40625 -18.796875 C 7.84375 -19.546875 9.453125 -19.921875 11.234375 -19.921875 C 14.003906 -19.921875 16.125 -19.1875 17.59375 -17.71875 C 19.070312 -16.257812 19.8125 -14.113281 19.8125 -11.28125 C 19.8125 -10.25 19.773438 -9.453125 19.703125 -8.890625 Z M 15.109375 -11.84375 C 15.054688 -13.332031 14.707031 -14.414062 14.0625 -15.09375 C 13.425781 -15.78125 12.484375 -16.125 11.234375 -16.125 C 8.753906 -16.125 7.296875 -14.695312 6.859375 -11.84375 Z M 15.109375 -11.84375 "/></g></g></g><g fill="#5d7480" fill-opacity="1"><g transform="translate(188.670609, 57.457975)"><g><path d="M 13.453125 0 L 7.609375 0 L 0.375 -19.5625 L 5.515625 -19.5625 L 10.375 -5.625 L 10.78125 -5.625 L 15.65625 -19.5625 L 20.671875 -19.5625 Z M 13.453125 0 "/></g></g></g><g fill="#5d7480" fill-opacity="1"><g transform="translate(209.701212, 57.457975)"><g><path d="M 19.328125 -8.671875 L 6.75 -8.671875 C 6.894531 -6.960938 7.378906 -5.722656 8.203125 -4.953125 C 9.035156 -4.179688 10.164062 -3.796875 11.59375 -3.796875 C 12.71875 -3.796875 13.628906 -4.003906 14.328125 -4.421875 C 15.023438 -4.835938 15.585938 -5.472656 16.015625 -6.328125 L 16.390625 -6.328125 L 19.640625 -4.234375 C 19.003906 -2.867188 18.039062 -1.757812 16.75 -0.90625 C 15.46875 -0.0507812 13.75 0.375 11.59375 0.375 C 9.570312 0.375 7.828125 -0.0078125 6.359375 -0.78125 C 4.890625 -1.550781 3.753906 -2.691406 2.953125 -4.203125 C 2.148438 -5.722656 1.75 -7.578125 1.75 -9.765625 C 1.75 -11.992188 2.164062 -13.867188 3 -15.390625 C 3.84375 -16.910156 4.976562 -18.046875 6.40625 -18.796875 C 7.84375 -19.546875 9.453125 -19.921875 11.234375 -19.921875 C 14.003906 -19.921875 16.125 -19.1875 17.59375 -17.71875 C 19.070312 -16.257812 19.8125 -14.113281 19.8125 -11.28125 C 19.8125 -10.25 19.773438 -9.453125 19.703125 -8.890625 Z M 15.109375 -11.84375 C 15.054688 -13.332031 14.707031 -14.414062 14.0625 -15.09375 C 13.425781 -15.78125 12.484375 -16.125 11.234375 -16.125 C 8.753906 -16.125 7.296875 -14.695312 6.859375 -11.84375 Z M 15.109375 -11.84375 "/></g></g></g><g fill="#5d7480" fill-opacity="1"><g transform="translate(230.962342, 57.457975)"><g><path d="M 2.8125 0 L 2.8125 -19.5625 L 7.53125 -19.5625 L 7.53125 -16.6875 L 7.90625 -16.59375 C 9.125 -18.8125 11.097656 -19.921875 13.828125 -19.921875 C 16.085938 -19.921875 17.742188 -19.304688 18.796875 -18.078125 C 19.859375 -16.847656 20.390625 -15.0625 20.390625 -12.71875 L 20.390625 0 L 15.484375 0 L 15.484375 -12.109375 C 15.484375 -13.410156 15.222656 -14.347656 14.703125 -14.921875 C 14.179688 -15.492188 13.347656 -15.78125 12.203125 -15.78125 C 10.796875 -15.78125 9.695312 -15.320312 8.90625 -14.40625 C 8.125 -13.5 7.734375 -12.070312 7.734375 -10.125 L 7.734375 0 Z M 2.8125 0 "/></g></g></g><g fill="#5d7480" fill-opacity="1"><g transform="translate(253.872577, 57.457975)"><g><path d="M 13.5 -4.65625 L 14.765625 -1.03125 C 14.234375 -0.59375 13.566406 -0.25 12.765625 0 C 11.960938 0.25 11.050781 0.375 10.03125 0.375 C 7.914062 0.375 6.304688 -0.195312 5.203125 -1.34375 C 4.109375 -2.5 3.5625 -4.179688 3.5625 -6.390625 L 3.5625 -15.671875 L 0.578125 -15.671875 L 0.578125 -19.578125 L 3.5625 -19.578125 L 3.5625 -23.390625 L 8.46875 -24.1875 L 8.46875 -19.578125 L 14.03125 -19.578125 L 14.03125 -15.671875 L 8.46875 -15.671875 L 8.46875 -6.734375 C 8.46875 -5.765625 8.671875 -5.054688 9.078125 -4.609375 C 9.484375 -4.171875 10.066406 -3.953125 10.828125 -3.953125 C 11.703125 -3.953125 12.46875 -4.1875 13.125 -4.65625 Z M 13.5 -4.65625 "/></g></g></g><g fill="#5d7480" fill-opacity="1"><g transform="translate(269.069234, 57.457975)"><g><path d="M 5.265625 -21.890625 C 4.378906 -21.890625 3.65625 -22.160156 3.09375 -22.703125 C 2.539062 -23.242188 2.265625 -23.9375 2.265625 -24.78125 C 2.265625 -25.625 2.539062 -26.3125 3.09375 -26.84375 C 3.65625 -27.382812 4.378906 -27.65625 5.265625 -27.65625 C 5.859375 -27.65625 6.382812 -27.53125 6.84375 -27.28125 C 7.300781 -27.039062 7.65625 -26.703125 7.90625 -26.265625 C 8.164062 -25.835938 8.296875 -25.34375 8.296875 -24.78125 C 8.296875 -24.226562 8.164062 -23.734375 7.90625 -23.296875 C 7.65625 -22.859375 7.300781 -22.515625 6.84375 -22.265625 C 6.382812 -22.015625 5.859375 -21.890625 5.265625 -21.890625 Z M 2.8125 0 L 2.8125 -19.5625 L 7.734375 -19.5625 L 7.734375 0 Z M 2.8125 0 "/></g></g></g><g fill="#5d7480" fill-opacity="1"><g transform="translate(279.602268, 57.457975)"><g><path d="M 11.359375 0.375 C 9.453125 0.375 7.773438 -0.015625 6.328125 -0.796875 C 4.878906 -1.585938 3.753906 -2.742188 2.953125 -4.265625 C 2.148438 -5.785156 1.75 -7.617188 1.75 -9.765625 C 1.75 -11.921875 2.148438 -13.757812 2.953125 -15.28125 C 3.753906 -16.8125 4.878906 -17.96875 6.328125 -18.75 C 7.773438 -19.53125 9.453125 -19.921875 11.359375 -19.921875 C 13.273438 -19.921875 14.957031 -19.53125 16.40625 -18.75 C 17.851562 -17.96875 18.976562 -16.8125 19.78125 -15.28125 C 20.59375 -13.757812 21 -11.921875 21 -9.765625 C 21 -7.617188 20.59375 -5.785156 19.78125 -4.265625 C 18.976562 -2.742188 17.851562 -1.585938 16.40625 -0.796875 C 14.957031 -0.015625 13.273438 0.375 11.359375 0.375 Z M 11.359375 -3.796875 C 14.398438 -3.796875 15.921875 -5.785156 15.921875 -9.765625 C 15.921875 -11.835938 15.53125 -13.351562 14.75 -14.3125 C 13.96875 -15.28125 12.835938 -15.765625 11.359375 -15.765625 C 8.328125 -15.765625 6.8125 -13.765625 6.8125 -9.765625 C 6.8125 -5.785156 8.328125 -3.796875 11.359375 -3.796875 Z M 11.359375 -3.796875 "/></g></g></g><g fill="#5d7480" fill-opacity="1"><g transform="translate(302.33518, 57.457975)"><g><path d="M 2.8125 0 L 2.8125 -19.5625 L 7.53125 -19.5625 L 7.53125 -16.6875 L 7.90625 -16.59375 C 9.125 -18.8125 11.097656 -19.921875 13.828125 -19.921875 C 16.085938 -19.921875 17.742188 -19.304688 18.796875 -18.078125 C 19.859375 -16.847656 20.390625 -15.0625 20.390625 -12.71875 L 20.390625 0 L 15.484375 0 L 15.484375 -12.109375 C 15.484375 -13.410156 15.222656 -14.347656 14.703125 -14.921875 C 14.179688 -15.492188 13.347656 -15.78125 12.203125 -15.78125 C 10.796875 -15.78125 9.695312 -15.320312 8.90625 -14.40625 C 8.125 -13.5 7.734375 -12.070312 7.734375 -10.125 L 7.734375 0 Z M 2.8125 0 "/></g></g></g></svg>