<svg xmlns="http://www.w3.org/2000/svg" xmlns:xlink="http://www.w3.org/1999/xlink" width="606" zoomAndPan="magnify" viewBox="0 0 454.5 89.249998" height="119" preserveAspectRatio="xMidYMid meet" version="1.0"><defs><g/><clipPath id="f013ac8c28"><path d="M 1.644531 0 L 451.992188 0 L 451.992188 88.140625 L 1.644531 88.140625 Z M 1.644531 0 " clip-rule="nonzero"/></clipPath><clipPath id="6ddb78bc81"><path d="M 45.714844 0 L 407.917969 0 C 419.605469 0 430.816406 4.644531 439.082031 12.90625 C 447.347656 21.171875 451.988281 32.382812 451.988281 44.070312 C 451.988281 55.757812 447.347656 66.96875 439.082031 75.234375 C 430.816406 83.496094 419.605469 88.140625 407.917969 88.140625 L 45.714844 88.140625 C 34.027344 88.140625 22.820312 83.496094 14.554688 75.234375 C 6.289062 66.96875 1.644531 55.757812 1.644531 44.070312 C 1.644531 32.382812 6.289062 21.171875 14.554688 12.90625 C 22.820312 4.644531 34.027344 0 45.714844 0 Z M 45.714844 0 " clip-rule="nonzero"/></clipPath><clipPath id="247e81736d"><path d="M 1.660156 0 L 452 0 L 452 88.507812 L 1.660156 88.507812 Z M 1.660156 0 " clip-rule="nonzero"/></clipPath><clipPath id="0d87edde76"><path d="M 45.726562 0 L 407.902344 0 C 419.589844 0 430.800781 4.644531 439.0625 12.90625 C 447.328125 21.171875 451.972656 32.378906 451.972656 44.066406 C 451.972656 55.753906 447.328125 66.964844 439.0625 75.226562 C 430.800781 83.492188 419.589844 88.132812 407.902344 88.132812 L 45.726562 88.132812 C 34.042969 88.132812 22.832031 83.492188 14.566406 75.226562 C 6.304688 66.964844 1.660156 55.753906 1.660156 44.066406 C 1.660156 32.378906 6.304688 21.171875 14.566406 12.90625 C 22.832031 4.644531 34.042969 0 45.726562 0 Z M 45.726562 0 " clip-rule="nonzero"/></clipPath></defs><g clip-path="url(#f013ac8c28)"><g clip-path="url(#6ddb78bc81)"><path fill="#b5cedb" d="M 1.644531 0 L 451.992188 0 L 451.992188 88.140625 L 1.644531 88.140625 Z M 1.644531 0 " fill-opacity="1" fill-rule="nonzero"/></g></g><g clip-path="url(#247e81736d)"><g clip-path="url(#0d87edde76)"><path stroke-linecap="butt" transform="matrix(0.74375, 0, 0, 0.74375, 1.661275, 0.000000991667)" fill="none" stroke-linejoin="miter" d="M 59.247449 -0.00000133333 L 546.206514 -0.00000133333 C 561.9208 -0.00000133333 576.994331 6.244747 588.102525 17.352941 C 599.215971 28.466387 605.460719 43.534665 605.460719 59.248952 C 605.460719 74.963239 599.215971 90.036769 588.102525 101.144963 C 576.994331 112.258409 561.9208 118.497905 546.206514 118.497905 L 59.247449 118.497905 C 43.538414 118.497905 28.464884 112.258409 17.351438 101.144963 C 6.243244 90.036769 -0.00150452 74.963239 -0.00150452 59.248952 C -0.00150452 43.534665 6.243244 28.466387 17.351438 17.352941 C 28.464884 6.244747 43.538414 -0.00000133333 59.247449 -0.00000133333 Z M 59.247449 -0.00000133333 " stroke="#425b69" stroke-width="20" stroke-opacity="1" stroke-miterlimit="4"/></g></g><g fill="#5d7480" fill-opacity="1"><g transform="translate(16.462233, 57.457975)"><g><path d="M 8.5 0 L 3.375 0 L 3.375 -25.921875 L 8.5 -25.921875 Z M 8.5 0 "/></g></g></g><g fill="#5d7480" fill-opacity="1"><g transform="translate(28.342928, 57.457975)"><g><path d="M 2.8125 0 L 2.8125 -19.5625 L 7.53125 -19.5625 L 7.53125 -16.9375 L 7.90625 -16.859375 C 8.539062 -17.910156 9.285156 -18.679688 10.140625 -19.171875 C 11.003906 -19.671875 12.101562 -19.921875 13.4375 -19.921875 C 14.914062 -19.921875 16.101562 -19.628906 17 -19.046875 C 17.894531 -18.460938 18.550781 -17.609375 18.96875 -16.484375 L 19.34375 -16.484375 C 19.945312 -17.660156 20.722656 -18.523438 21.671875 -19.078125 C 22.628906 -19.640625 23.816406 -19.921875 25.234375 -19.921875 C 29.285156 -19.921875 31.3125 -17.664062 31.3125 -13.15625 L 31.3125 0 L 26.40625 0 L 26.40625 -12.53125 C 26.40625 -13.675781 26.175781 -14.503906 25.71875 -15.015625 C 25.269531 -15.523438 24.550781 -15.78125 23.5625 -15.78125 C 20.863281 -15.78125 19.515625 -13.976562 19.515625 -10.375 L 19.515625 0 L 14.609375 0 L 14.609375 -12.53125 C 14.609375 -13.675781 14.378906 -14.503906 13.921875 -15.015625 C 13.472656 -15.523438 12.75 -15.78125 11.75 -15.78125 C 10.488281 -15.78125 9.503906 -15.359375 8.796875 -14.515625 C 8.085938 -13.671875 7.734375 -12.328125 7.734375 -10.484375 L 7.734375 0 Z M 2.8125 0 "/></g></g></g><g fill="#5d7480" fill-opacity="1"><g transform="translate(62.17631, 57.457975)"><g><path d="M 2.8125 7.921875 L 2.8125 -19.5625 L 7.734375 -19.5625 L 7.734375 -17 L 8.109375 -16.9375 C 8.679688 -17.925781 9.453125 -18.671875 10.421875 -19.171875 C 11.390625 -19.671875 12.523438 -19.921875 13.828125 -19.921875 C 15.398438 -19.921875 16.773438 -19.546875 17.953125 -18.796875 C 19.128906 -18.054688 20.046875 -16.925781 20.703125 -15.40625 C 21.359375 -13.894531 21.6875 -12.015625 21.6875 -9.765625 C 21.6875 -7.535156 21.335938 -5.660156 20.640625 -4.140625 C 19.953125 -2.628906 18.992188 -1.5 17.765625 -0.75 C 16.535156 0 15.117188 0.375 13.515625 0.375 C 12.296875 0.375 11.242188 0.171875 10.359375 -0.234375 C 9.472656 -0.640625 8.722656 -1.273438 8.109375 -2.140625 L 7.734375 -2.078125 L 7.734375 7.921875 Z M 12.140625 -3.796875 C 13.609375 -3.796875 14.71875 -4.273438 15.46875 -5.234375 C 16.226562 -6.191406 16.609375 -7.703125 16.609375 -9.765625 C 16.609375 -11.835938 16.226562 -13.351562 15.46875 -14.3125 C 14.71875 -15.28125 13.609375 -15.765625 12.140625 -15.765625 C 10.773438 -15.765625 9.6875 -15.265625 8.875 -14.265625 C 8.070312 -13.273438 7.671875 -11.773438 7.671875 -9.765625 C 7.671875 -7.765625 8.070312 -6.269531 8.875 -5.28125 C 9.6875 -4.289062 10.773438 -3.796875 12.140625 -3.796875 Z M 12.140625 -3.796875 "/></g></g></g><g fill="#5d7480" fill-opacity="1"><g transform="translate(85.600791, 57.457975)"><g><path d="M 7.625 0.375 C 6.375 0.375 5.285156 0.144531 4.359375 -0.3125 C 3.441406 -0.78125 2.734375 -1.457031 2.234375 -2.34375 C 1.734375 -3.238281 1.484375 -4.3125 1.484375 -5.5625 C 1.484375 -6.726562 1.734375 -7.703125 2.234375 -8.484375 C 2.734375 -9.265625 3.5 -9.90625 4.53125 -10.40625 C 5.570312 -10.914062 6.929688 -11.304688 8.609375 -11.578125 C 9.785156 -11.765625 10.675781 -11.96875 11.28125 -12.1875 C 11.894531 -12.414062 12.304688 -12.671875 12.515625 -12.953125 C 12.734375 -13.242188 12.84375 -13.609375 12.84375 -14.046875 C 12.84375 -14.671875 12.625 -15.144531 12.1875 -15.46875 C 11.75 -15.800781 11.019531 -15.96875 10 -15.96875 C 8.914062 -15.96875 7.878906 -15.722656 6.890625 -15.234375 C 5.910156 -14.753906 5.0625 -14.117188 4.34375 -13.328125 L 3.984375 -13.328125 L 1.9375 -16.4375 C 2.925781 -17.53125 4.132812 -18.382812 5.5625 -19 C 7 -19.613281 8.5625 -19.921875 10.25 -19.921875 C 12.832031 -19.921875 14.703125 -19.367188 15.859375 -18.265625 C 17.023438 -17.171875 17.609375 -15.613281 17.609375 -13.59375 L 17.609375 -5.109375 C 17.609375 -4.234375 17.992188 -3.796875 18.765625 -3.796875 C 19.054688 -3.796875 19.34375 -3.847656 19.625 -3.953125 L 19.875 -3.890625 L 20.234375 -0.46875 C 19.960938 -0.28125 19.582031 -0.128906 19.09375 -0.015625 C 18.613281 0.0859375 18.082031 0.140625 17.5 0.140625 C 16.332031 0.140625 15.421875 -0.0820312 14.765625 -0.53125 C 14.109375 -0.976562 13.632812 -1.679688 13.34375 -2.640625 L 12.984375 -2.671875 C 12.023438 -0.640625 10.238281 0.375 7.625 0.375 Z M 9.1875 -3.296875 C 10.320312 -3.296875 11.226562 -3.675781 11.90625 -4.4375 C 12.582031 -5.195312 12.921875 -6.257812 12.921875 -7.625 L 12.921875 -9.609375 L 12.59375 -9.6875 C 12.289062 -9.445312 11.898438 -9.242188 11.421875 -9.078125 C 10.941406 -8.921875 10.253906 -8.765625 9.359375 -8.609375 C 8.296875 -8.429688 7.53125 -8.128906 7.0625 -7.703125 C 6.59375 -7.273438 6.359375 -6.664062 6.359375 -5.875 C 6.359375 -5.03125 6.609375 -4.390625 7.109375 -3.953125 C 7.609375 -3.515625 8.300781 -3.296875 9.1875 -3.296875 Z M 9.1875 -3.296875 "/></g></g></g><g fill="#5d7480" fill-opacity="1"><g transform="translate(106.223555, 57.457975)"><g><path d="M 11.40625 0.375 C 9.507812 0.375 7.832031 -0.015625 6.375 -0.796875 C 4.925781 -1.585938 3.789062 -2.742188 2.96875 -4.265625 C 2.15625 -5.796875 1.75 -7.628906 1.75 -9.765625 C 1.75 -11.921875 2.15625 -13.757812 2.96875 -15.28125 C 3.789062 -16.8125 4.921875 -17.96875 6.359375 -18.75 C 7.804688 -19.53125 9.457031 -19.921875 11.3125 -19.921875 C 15.4375 -19.921875 18.078125 -18.425781 19.234375 -15.4375 L 15.875 -13.03125 L 15.5 -13.03125 C 15.09375 -13.957031 14.566406 -14.644531 13.921875 -15.09375 C 13.285156 -15.539062 12.414062 -15.765625 11.3125 -15.765625 C 9.894531 -15.765625 8.789062 -15.269531 8 -14.28125 C 7.207031 -13.300781 6.8125 -11.796875 6.8125 -9.765625 C 6.8125 -7.753906 7.210938 -6.253906 8.015625 -5.265625 C 8.816406 -4.285156 9.945312 -3.796875 11.40625 -3.796875 C 12.46875 -3.796875 13.367188 -4.082031 14.109375 -4.65625 C 14.847656 -5.226562 15.375 -6.050781 15.6875 -7.125 L 16.0625 -7.15625 L 19.5625 -5.25 C 19.0625 -3.59375 18.140625 -2.238281 16.796875 -1.1875 C 15.453125 -0.144531 13.65625 0.375 11.40625 0.375 Z M 11.40625 0.375 "/></g></g></g><g fill="#5d7480" fill-opacity="1"><g transform="translate(126.385277, 57.457975)"><g><path d="M 13.5 -4.65625 L 14.765625 -1.03125 C 14.234375 -0.59375 13.566406 -0.25 12.765625 0 C 11.960938 0.25 11.050781 0.375 10.03125 0.375 C 7.914062 0.375 6.304688 -0.195312 5.203125 -1.34375 C 4.109375 -2.5 3.5625 -4.179688 3.5625 -6.390625 L 3.5625 -15.671875 L 0.578125 -15.671875 L 0.578125 -19.578125 L 3.5625 -19.578125 L 3.5625 -23.390625 L 8.46875 -24.1875 L 8.46875 -19.578125 L 14.03125 -19.578125 L 14.03125 -15.671875 L 8.46875 -15.671875 L 8.46875 -6.734375 C 8.46875 -5.765625 8.671875 -5.054688 9.078125 -4.609375 C 9.484375 -4.171875 10.066406 -3.953125 10.828125 -3.953125 C 11.703125 -3.953125 12.46875 -4.1875 13.125 -4.65625 Z M 13.5 -4.65625 "/></g></g></g><g fill="#5d7480" fill-opacity="1"><g transform="translate(141.581933, 57.457975)"><g><path d="M 9.15625 0.375 C 7.8125 0.375 6.582031 0.21875 5.46875 -0.09375 C 4.363281 -0.40625 3.414062 -0.835938 2.625 -1.390625 C 1.84375 -1.941406 1.265625 -2.570312 0.890625 -3.28125 L 3.609375 -6.21875 L 3.984375 -6.21875 C 4.640625 -5.34375 5.410156 -4.6875 6.296875 -4.25 C 7.179688 -3.8125 8.144531 -3.59375 9.1875 -3.59375 C 10.144531 -3.59375 10.863281 -3.765625 11.34375 -4.109375 C 11.832031 -4.453125 12.078125 -4.941406 12.078125 -5.578125 C 12.078125 -6.078125 11.898438 -6.492188 11.546875 -6.828125 C 11.203125 -7.171875 10.640625 -7.4375 9.859375 -7.625 L 7.265625 -8.25 C 5.328125 -8.707031 3.910156 -9.410156 3.015625 -10.359375 C 2.128906 -11.316406 1.6875 -12.523438 1.6875 -13.984375 C 1.6875 -15.203125 1.992188 -16.257812 2.609375 -17.15625 C 3.234375 -18.0625 4.109375 -18.75 5.234375 -19.21875 C 6.367188 -19.6875 7.6875 -19.921875 9.1875 -19.921875 C 10.945312 -19.921875 12.40625 -19.664062 13.5625 -19.15625 C 14.71875 -18.65625 15.625 -17.976562 16.28125 -17.125 L 13.65625 -14.296875 L 13.296875 -14.296875 C 12.753906 -14.910156 12.140625 -15.359375 11.453125 -15.640625 C 10.773438 -15.921875 10.019531 -16.0625 9.1875 -16.0625 C 7.25 -16.0625 6.28125 -15.457031 6.28125 -14.25 C 6.28125 -13.75 6.457031 -13.335938 6.8125 -13.015625 C 7.175781 -12.691406 7.8125 -12.429688 8.71875 -12.234375 L 11.140625 -11.703125 C 13.117188 -11.273438 14.566406 -10.59375 15.484375 -9.65625 C 16.398438 -8.71875 16.859375 -7.457031 16.859375 -5.875 C 16.859375 -4.625 16.550781 -3.523438 15.9375 -2.578125 C 15.320312 -1.640625 14.4375 -0.910156 13.28125 -0.390625 C 12.125 0.117188 10.75 0.375 9.15625 0.375 Z M 9.15625 0.375 "/></g></g></g><g fill="#5d7480" fill-opacity="1"><g transform="translate(159.61577, 57.457975)"><g/></g></g><g fill="#5d7480" fill-opacity="1"><g transform="translate(168.180516, 57.457975)"><g><path d="M 11.359375 0.375 C 9.453125 0.375 7.773438 -0.015625 6.328125 -0.796875 C 4.878906 -1.585938 3.753906 -2.742188 2.953125 -4.265625 C 2.148438 -5.785156 1.75 -7.617188 1.75 -9.765625 C 1.75 -11.921875 2.148438 -13.757812 2.953125 -15.28125 C 3.753906 -16.8125 4.878906 -17.96875 6.328125 -18.75 C 7.773438 -19.53125 9.453125 -19.921875 11.359375 -19.921875 C 13.273438 -19.921875 14.957031 -19.53125 16.40625 -18.75 C 17.851562 -17.96875 18.976562 -16.8125 19.78125 -15.28125 C 20.59375 -13.757812 21 -11.921875 21 -9.765625 C 21 -7.617188 20.59375 -5.785156 19.78125 -4.265625 C 18.976562 -2.742188 17.851562 -1.585938 16.40625 -0.796875 C 14.957031 -0.015625 13.273438 0.375 11.359375 0.375 Z M 11.359375 -3.796875 C 14.398438 -3.796875 15.921875 -5.785156 15.921875 -9.765625 C 15.921875 -11.835938 15.53125 -13.351562 14.75 -14.3125 C 13.96875 -15.28125 12.835938 -15.765625 11.359375 -15.765625 C 8.328125 -15.765625 6.8125 -13.765625 6.8125 -9.765625 C 6.8125 -5.785156 8.328125 -3.796875 11.359375 -3.796875 Z M 11.359375 -3.796875 "/></g></g></g><g fill="#5d7480" fill-opacity="1"><g transform="translate(190.913428, 57.457975)"><g><path d="M 3.421875 0 L 3.421875 -15.671875 L 0.65625 -15.671875 L 0.65625 -19.578125 L 3.421875 -19.578125 C 3.222656 -20.398438 3.125 -21.171875 3.125 -21.890625 C 3.125 -23.140625 3.40625 -24.203125 3.96875 -25.078125 C 4.539062 -25.960938 5.359375 -26.632812 6.421875 -27.09375 C 7.484375 -27.550781 8.75 -27.78125 10.21875 -27.78125 C 12.375 -27.78125 13.984375 -27.410156 15.046875 -26.671875 L 13.90625 -23.046875 L 13.53125 -22.984375 C 12.789062 -23.503906 11.847656 -23.765625 10.703125 -23.765625 C 9.816406 -23.765625 9.148438 -23.546875 8.703125 -23.109375 C 8.265625 -22.679688 8.046875 -22.09375 8.046875 -21.34375 C 8.046875 -21.03125 8.066406 -20.738281 8.109375 -20.46875 C 8.148438 -20.207031 8.222656 -19.910156 8.328125 -19.578125 L 13.921875 -19.578125 L 13.921875 -15.671875 L 8.328125 -15.671875 L 8.328125 0 Z M 3.421875 0 "/></g></g></g><g fill="#5d7480" fill-opacity="1"><g transform="translate(205.028403, 57.457975)"><g/></g></g><g fill="#5d7480" fill-opacity="1"><g transform="translate(213.593148, 57.457975)"><g><path d="M 14.171875 0.375 C 11.773438 0.375 9.664062 -0.117188 7.84375 -1.109375 C 6.03125 -2.109375 4.609375 -3.601562 3.578125 -5.59375 C 2.546875 -7.582031 2.03125 -10.039062 2.03125 -12.96875 C 2.03125 -15.882812 2.546875 -18.335938 3.578125 -20.328125 C 4.609375 -22.316406 6.03125 -23.804688 7.84375 -24.796875 C 9.664062 -25.796875 11.773438 -26.296875 14.171875 -26.296875 C 16.660156 -26.296875 18.773438 -25.804688 20.515625 -24.828125 C 22.265625 -23.859375 23.507812 -22.375 24.25 -20.375 L 20.515625 -18.078125 L 20.078125 -18.109375 C 19.515625 -19.453125 18.757812 -20.414062 17.8125 -21 C 16.863281 -21.582031 15.648438 -21.875 14.171875 -21.875 C 12.015625 -21.875 10.332031 -21.160156 9.125 -19.734375 C 7.925781 -18.316406 7.328125 -16.0625 7.328125 -12.96875 C 7.328125 -9.875 7.925781 -7.613281 9.125 -6.1875 C 10.332031 -4.769531 12.015625 -4.0625 14.171875 -4.0625 C 17.535156 -4.0625 19.597656 -5.695312 20.359375 -8.96875 L 20.796875 -8.96875 L 24.578125 -7 C 23.867188 -4.539062 22.65625 -2.695312 20.9375 -1.46875 C 19.226562 -0.238281 16.972656 0.375 14.171875 0.375 Z M 14.171875 0.375 "/></g></g></g><g fill="#5d7480" fill-opacity="1"><g transform="translate(239.021371, 57.457975)"><g><path d="M 2.8125 0 L 2.8125 -27.40625 L 7.734375 -27.40625 L 7.734375 -17 L 8.109375 -16.9375 C 8.753906 -17.894531 9.550781 -18.628906 10.5 -19.140625 C 11.445312 -19.660156 12.585938 -19.921875 13.921875 -19.921875 C 18.234375 -19.921875 20.390625 -17.476562 20.390625 -12.59375 L 20.390625 0 L 15.484375 0 L 15.484375 -11.96875 C 15.484375 -13.300781 15.21875 -14.269531 14.6875 -14.875 C 14.15625 -15.476562 13.328125 -15.78125 12.203125 -15.78125 C 10.828125 -15.78125 9.738281 -15.320312 8.9375 -14.40625 C 8.132812 -13.488281 7.734375 -12.0625 7.734375 -10.125 L 7.734375 0 Z M 2.8125 0 "/></g></g></g><g fill="#5d7480" fill-opacity="1"><g transform="translate(261.931606, 57.457975)"><g><path d="M 5.265625 -21.890625 C 4.378906 -21.890625 3.65625 -22.160156 3.09375 -22.703125 C 2.539062 -23.242188 2.265625 -23.9375 2.265625 -24.78125 C 2.265625 -25.625 2.539062 -26.3125 3.09375 -26.84375 C 3.65625 -27.382812 4.378906 -27.65625 5.265625 -27.65625 C 5.859375 -27.65625 6.382812 -27.53125 6.84375 -27.28125 C 7.300781 -27.039062 7.65625 -26.703125 7.90625 -26.265625 C 8.164062 -25.835938 8.296875 -25.34375 8.296875 -24.78125 C 8.296875 -24.226562 8.164062 -23.734375 7.90625 -23.296875 C 7.65625 -22.859375 7.300781 -22.515625 6.84375 -22.265625 C 6.382812 -22.015625 5.859375 -21.890625 5.265625 -21.890625 Z M 2.8125 0 L 2.8125 -19.5625 L 7.734375 -19.5625 L 7.734375 0 Z M 2.8125 0 "/></g></g></g><g fill="#5d7480" fill-opacity="1"><g transform="translate(272.464652, 57.457975)"><g><path d="M 8.125 0.375 C 6.363281 0.375 5.015625 -0.0976562 4.078125 -1.046875 C 3.148438 -2.003906 2.6875 -3.453125 2.6875 -5.390625 L 2.6875 -27.40625 L 7.609375 -27.40625 L 7.609375 -5.578125 C 7.609375 -4.390625 8.101562 -3.796875 9.09375 -3.796875 C 9.375 -3.796875 9.675781 -3.84375 10 -3.9375 L 10.25 -3.859375 L 10.6875 -0.09375 C 10.414062 0.0507812 10.054688 0.164062 9.609375 0.25 C 9.160156 0.332031 8.664062 0.375 8.125 0.375 Z M 8.125 0.375 "/></g></g></g><g fill="#5d7480" fill-opacity="1"><g transform="translate(283.70697, 57.457975)"><g><path d="M 9.65625 0.375 C 8.113281 0.375 6.75 0 5.5625 -0.75 C 4.375 -1.5 3.441406 -2.632812 2.765625 -4.15625 C 2.085938 -5.675781 1.75 -7.546875 1.75 -9.765625 C 1.75 -12.003906 2.09375 -13.878906 2.78125 -15.390625 C 3.476562 -16.910156 4.4375 -18.046875 5.65625 -18.796875 C 6.882812 -19.546875 8.300781 -19.921875 9.90625 -19.921875 C 11.125 -19.921875 12.179688 -19.710938 13.078125 -19.296875 C 13.972656 -18.878906 14.726562 -18.226562 15.34375 -17.34375 L 15.703125 -17.421875 L 15.703125 -27.40625 L 20.625 -27.40625 L 20.625 0 L 15.703125 0 L 15.703125 -2.53125 L 15.34375 -2.609375 C 14.789062 -1.679688 14.039062 -0.953125 13.09375 -0.421875 C 12.15625 0.109375 11.007812 0.375 9.65625 0.375 Z M 11.265625 -3.796875 C 12.640625 -3.796875 13.726562 -4.285156 14.53125 -5.265625 C 15.34375 -6.253906 15.75 -7.753906 15.75 -9.765625 C 15.75 -11.773438 15.34375 -13.273438 14.53125 -14.265625 C 13.726562 -15.265625 12.640625 -15.765625 11.265625 -15.765625 C 9.816406 -15.765625 8.710938 -15.28125 7.953125 -14.3125 C 7.191406 -13.351562 6.8125 -11.835938 6.8125 -9.765625 C 6.8125 -7.710938 7.191406 -6.203125 7.953125 -5.234375 C 8.710938 -4.273438 9.816406 -3.796875 11.265625 -3.796875 Z M 11.265625 -3.796875 "/></g></g></g><g fill="#5d7480" fill-opacity="1"><g transform="translate(307.149166, 57.457975)"><g/></g></g><g fill="#5d7480" fill-opacity="1"><g transform="translate(315.713912, 57.457975)"><g><path d="M 11.484375 0.375 C 9.691406 0.375 8.09375 0.15625 6.6875 -0.28125 C 5.289062 -0.726562 4.125 -1.3125 3.1875 -2.03125 C 2.257812 -2.757812 1.546875 -3.554688 1.046875 -4.421875 L 3.859375 -7.859375 L 4.3125 -7.859375 C 5.09375 -6.691406 6.082031 -5.765625 7.28125 -5.078125 C 8.476562 -4.398438 9.878906 -4.0625 11.484375 -4.0625 C 12.859375 -4.0625 13.894531 -4.347656 14.59375 -4.921875 C 15.289062 -5.503906 15.640625 -6.304688 15.640625 -7.328125 C 15.640625 -7.941406 15.523438 -8.453125 15.296875 -8.859375 C 15.078125 -9.273438 14.707031 -9.628906 14.1875 -9.921875 C 13.664062 -10.222656 12.960938 -10.476562 12.078125 -10.6875 L 8.734375 -11.453125 C 6.410156 -11.984375 4.675781 -12.863281 3.53125 -14.09375 C 2.394531 -15.332031 1.828125 -16.941406 1.828125 -18.921875 C 1.828125 -20.390625 2.191406 -21.675781 2.921875 -22.78125 C 3.660156 -23.894531 4.726562 -24.757812 6.125 -25.375 C 7.53125 -25.988281 9.207031 -26.296875 11.15625 -26.296875 C 13.15625 -26.296875 14.863281 -26.03125 16.28125 -25.5 C 17.707031 -24.976562 18.910156 -24.171875 19.890625 -23.078125 L 17.359375 -19.609375 L 16.921875 -19.609375 C 16.179688 -20.378906 15.335938 -20.957031 14.390625 -21.34375 C 13.453125 -21.726562 12.375 -21.921875 11.15625 -21.921875 C 9.75 -21.921875 8.675781 -21.671875 7.9375 -21.171875 C 7.207031 -20.671875 6.84375 -19.984375 6.84375 -19.109375 C 6.84375 -18.296875 7.097656 -17.644531 7.609375 -17.15625 C 8.128906 -16.675781 9.019531 -16.300781 10.28125 -16.03125 L 13.6875 -15.3125 C 16.207031 -14.78125 18.035156 -13.878906 19.171875 -12.609375 C 20.304688 -11.335938 20.875 -9.679688 20.875 -7.640625 C 20.875 -6.023438 20.523438 -4.613281 19.828125 -3.40625 C 19.128906 -2.207031 18.078125 -1.273438 16.671875 -0.609375 C 15.265625 0.046875 13.535156 0.375 11.484375 0.375 Z M 11.484375 0.375 "/></g></g></g><g fill="#5d7480" fill-opacity="1"><g transform="translate(337.985782, 57.457975)"><g><path d="M 7.625 0.375 C 6.375 0.375 5.285156 0.144531 4.359375 -0.3125 C 3.441406 -0.78125 2.734375 -1.457031 2.234375 -2.34375 C 1.734375 -3.238281 1.484375 -4.3125 1.484375 -5.5625 C 1.484375 -6.726562 1.734375 -7.703125 2.234375 -8.484375 C 2.734375 -9.265625 3.5 -9.90625 4.53125 -10.40625 C 5.570312 -10.914062 6.929688 -11.304688 8.609375 -11.578125 C 9.785156 -11.765625 10.675781 -11.96875 11.28125 -12.1875 C 11.894531 -12.414062 12.304688 -12.671875 12.515625 -12.953125 C 12.734375 -13.242188 12.84375 -13.609375 12.84375 -14.046875 C 12.84375 -14.671875 12.625 -15.144531 12.1875 -15.46875 C 11.75 -15.800781 11.019531 -15.96875 10 -15.96875 C 8.914062 -15.96875 7.878906 -15.722656 6.890625 -15.234375 C 5.910156 -14.753906 5.0625 -14.117188 4.34375 -13.328125 L 3.984375 -13.328125 L 1.9375 -16.4375 C 2.925781 -17.53125 4.132812 -18.382812 5.5625 -19 C 7 -19.613281 8.5625 -19.921875 10.25 -19.921875 C 12.832031 -19.921875 14.703125 -19.367188 15.859375 -18.265625 C 17.023438 -17.171875 17.609375 -15.613281 17.609375 -13.59375 L 17.609375 -5.109375 C 17.609375 -4.234375 17.992188 -3.796875 18.765625 -3.796875 C 19.054688 -3.796875 19.34375 -3.847656 19.625 -3.953125 L 19.875 -3.890625 L 20.234375 -0.46875 C 19.960938 -0.28125 19.582031 -0.128906 19.09375 -0.015625 C 18.613281 0.0859375 18.082031 0.140625 17.5 0.140625 C 16.332031 0.140625 15.421875 -0.0820312 14.765625 -0.53125 C 14.109375 -0.976562 13.632812 -1.679688 13.34375 -2.640625 L 12.984375 -2.671875 C 12.023438 -0.640625 10.238281 0.375 7.625 0.375 Z M 9.1875 -3.296875 C 10.320312 -3.296875 11.226562 -3.675781 11.90625 -4.4375 C 12.582031 -5.195312 12.921875 -6.257812 12.921875 -7.625 L 12.921875 -9.609375 L 12.59375 -9.6875 C 12.289062 -9.445312 11.898438 -9.242188 11.421875 -9.078125 C 10.941406 -8.921875 10.253906 -8.765625 9.359375 -8.609375 C 8.296875 -8.429688 7.53125 -8.128906 7.0625 -7.703125 C 6.59375 -7.273438 6.359375 -6.664062 6.359375 -5.875 C 6.359375 -5.03125 6.609375 -4.390625 7.109375 -3.953125 C 7.609375 -3.515625 8.300781 -3.296875 9.1875 -3.296875 Z M 9.1875 -3.296875 "/></g></g></g><g fill="#5d7480" fill-opacity="1"><g transform="translate(358.608546, 57.457975)"><g><path d="M 3.421875 0 L 3.421875 -15.671875 L 0.65625 -15.671875 L 0.65625 -19.578125 L 3.421875 -19.578125 C 3.222656 -20.398438 3.125 -21.171875 3.125 -21.890625 C 3.125 -23.140625 3.40625 -24.203125 3.96875 -25.078125 C 4.539062 -25.960938 5.359375 -26.632812 6.421875 -27.09375 C 7.484375 -27.550781 8.75 -27.78125 10.21875 -27.78125 C 12.375 -27.78125 13.984375 -27.410156 15.046875 -26.671875 L 13.90625 -23.046875 L 13.53125 -22.984375 C 12.789062 -23.503906 11.847656 -23.765625 10.703125 -23.765625 C 9.816406 -23.765625 9.148438 -23.546875 8.703125 -23.109375 C 8.265625 -22.679688 8.046875 -22.09375 8.046875 -21.34375 C 8.046875 -21.03125 8.066406 -20.738281 8.109375 -20.46875 C 8.148438 -20.207031 8.222656 -19.910156 8.328125 -19.578125 L 13.921875 -19.578125 L 13.921875 -15.671875 L 8.328125 -15.671875 L 8.328125 0 Z M 3.421875 0 "/></g></g></g><g fill="#5d7480" fill-opacity="1"><g transform="translate(372.723521, 57.457975)"><g><path d="M 19.328125 -8.671875 L 6.75 -8.671875 C 6.894531 -6.960938 7.378906 -5.722656 8.203125 -4.953125 C 9.035156 -4.179688 10.164062 -3.796875 11.59375 -3.796875 C 12.71875 -3.796875 13.628906 -4.003906 14.328125 -4.421875 C 15.023438 -4.835938 15.585938 -5.472656 16.015625 -6.328125 L 16.390625 -6.328125 L 19.640625 -4.234375 C 19.003906 -2.867188 18.039062 -1.757812 16.75 -0.90625 C 15.46875 -0.0507812 13.75 0.375 11.59375 0.375 C 9.570312 0.375 7.828125 -0.0078125 6.359375 -0.78125 C 4.890625 -1.550781 3.753906 -2.691406 2.953125 -4.203125 C 2.148438 -5.722656 1.75 -7.578125 1.75 -9.765625 C 1.75 -11.992188 2.164062 -13.867188 3 -15.390625 C 3.84375 -16.910156 4.976562 -18.046875 6.40625 -18.796875 C 7.84375 -19.546875 9.453125 -19.921875 11.234375 -19.921875 C 14.003906 -19.921875 16.125 -19.1875 17.59375 -17.71875 C 19.070312 -16.257812 19.8125 -14.113281 19.8125 -11.28125 C 19.8125 -10.25 19.773438 -9.453125 19.703125 -8.890625 Z M 15.109375 -11.84375 C 15.054688 -13.332031 14.707031 -14.414062 14.0625 -15.09375 C 13.425781 -15.78125 12.484375 -16.125 11.234375 -16.125 C 8.753906 -16.125 7.296875 -14.695312 6.859375 -11.84375 Z M 15.109375 -11.84375 "/></g></g></g><g fill="#5d7480" fill-opacity="1"><g transform="translate(393.984651, 57.457975)"><g><path d="M 13.5 -4.65625 L 14.765625 -1.03125 C 14.234375 -0.59375 13.566406 -0.25 12.765625 0 C 11.960938 0.25 11.050781 0.375 10.03125 0.375 C 7.914062 0.375 6.304688 -0.195312 5.203125 -1.34375 C 4.109375 -2.5 3.5625 -4.179688 3.5625 -6.390625 L 3.5625 -15.671875 L 0.578125 -15.671875 L 0.578125 -19.578125 L 3.5625 -19.578125 L 3.5625 -23.390625 L 8.46875 -24.1875 L 8.46875 -19.578125 L 14.03125 -19.578125 L 14.03125 -15.671875 L 8.46875 -15.671875 L 8.46875 -6.734375 C 8.46875 -5.765625 8.671875 -5.054688 9.078125 -4.609375 C 9.484375 -4.171875 10.066406 -3.953125 10.828125 -3.953125 C 11.703125 -3.953125 12.46875 -4.1875 13.125 -4.65625 Z M 13.5 -4.65625 "/></g></g></g><g fill="#5d7480" fill-opacity="1"><g transform="translate(409.181318, 57.457975)"><g><path d="M 4.328125 8.296875 C 3.484375 8.296875 2.722656 8.226562 2.046875 8.09375 C 1.367188 7.96875 0.816406 7.800781 0.390625 7.59375 L 1.171875 3.609375 L 1.484375 3.515625 C 1.785156 3.660156 2.15625 3.78125 2.59375 3.875 C 3.03125 3.976562 3.476562 4.03125 3.9375 4.03125 C 4.726562 4.03125 5.382812 3.925781 5.90625 3.71875 C 6.4375 3.507812 6.882812 3.164062 7.25 2.6875 C 7.613281 2.207031 7.941406 1.539062 8.234375 0.6875 L 0.421875 -19.5625 L 5.5625 -19.5625 L 10.421875 -5.953125 L 10.84375 -5.953125 L 15.578125 -19.5625 L 20.578125 -19.5625 L 12.734375 1.21875 C 12.109375 2.894531 11.421875 4.242188 10.671875 5.265625 C 9.921875 6.296875 9.03125 7.054688 8 7.546875 C 6.976562 8.046875 5.753906 8.296875 4.328125 8.296875 Z M 4.328125 8.296875 "/></g></g></g></svg>