<svg xmlns="http://www.w3.org/2000/svg" xmlns:xlink="http://www.w3.org/1999/xlink" width="620" zoomAndPan="magnify" viewBox="0 0 464.87997 123.750003" height="165" preserveAspectRatio="xMidYMid meet" version="1.0"><defs><g/><clipPath id="31f922d4af"><path d="M 11.105469 0 L 464.320312 0 L 464.320312 88.703125 L 11.105469 88.703125 Z M 11.105469 0 " clip-rule="nonzero"/></clipPath><clipPath id="e182fa4762"><path d="M 55.457031 0 L 419.964844 0 C 431.726562 0 443.007812 4.671875 451.328125 12.988281 C 459.644531 21.308594 464.316406 32.589844 464.316406 44.351562 C 464.316406 56.113281 459.644531 67.394531 451.328125 75.710938 C 443.007812 84.03125 431.726562 88.703125 419.964844 88.703125 L 55.457031 88.703125 C 43.691406 88.703125 32.414062 84.03125 24.09375 75.710938 C 15.777344 67.394531 11.105469 56.113281 11.105469 44.351562 C 11.105469 32.589844 15.777344 21.308594 24.09375 12.988281 C 32.414062 4.671875 43.691406 0 55.457031 0 Z M 55.457031 0 " clip-rule="nonzero"/></clipPath><clipPath id="aee095ae61"><path d="M 11.121094 0 L 464.351562 0 L 464.351562 89 L 11.121094 89 Z M 11.121094 0 " clip-rule="nonzero"/></clipPath><clipPath id="9cc90e1709"><path d="M 55.46875 0 L 419.949219 0 C 431.710938 0 442.992188 4.671875 451.308594 12.988281 C 459.625 21.304688 464.296875 32.585938 464.296875 44.347656 C 464.296875 56.109375 459.625 67.390625 451.308594 75.707031 C 442.992188 84.023438 431.710938 88.695312 419.949219 88.695312 L 55.46875 88.695312 C 43.707031 88.695312 32.425781 84.023438 24.109375 75.707031 C 15.792969 67.390625 11.121094 56.109375 11.121094 44.347656 C 11.121094 32.585938 15.792969 21.304688 24.109375 12.988281 C 32.425781 4.671875 43.707031 0 55.46875 0 Z M 55.46875 0 " clip-rule="nonzero"/></clipPath></defs><g clip-path="url(#31f922d4af)"><g clip-path="url(#e182fa4762)"><path fill="#ffffff" d="M 11.105469 0 L 464.320312 0 L 464.320312 88.703125 L 11.105469 88.703125 Z M 11.105469 0 " fill-opacity="1" fill-rule="nonzero"/></g></g><g clip-path="url(#aee095ae61)"><g clip-path="url(#9cc90e1709)"><path stroke-linecap="butt" transform="matrix(0.748488, 0, 0, 0.748488, 11.120023, 0.00000698589)" fill="none" stroke-linejoin="miter" d="M 59.251095 -0.00000933333 L 546.206827 -0.00000933333 C 561.9208 -0.00000933333 576.992855 6.241742 588.103797 17.352685 C 599.21474 28.463628 605.456491 43.535682 605.456491 59.249655 C 605.456491 74.963628 599.21474 90.035682 588.103797 101.146625 C 576.992855 112.257568 561.9208 118.499319 546.206827 118.499319 L 59.251095 118.499319 C 43.537121 118.499319 28.465067 112.257568 17.354124 101.146625 C 6.243181 90.035682 0.00143032 74.963628 0.00143032 59.249655 C 0.00143032 43.535682 6.243181 28.463628 17.354124 17.352685 C 28.465067 6.241742 43.537121 -0.00000933333 59.251095 -0.00000933333 Z M 59.251095 -0.00000933333 " stroke="#425b69" stroke-width="20" stroke-opacity="1" stroke-miterlimit="4"/></g></g><g fill="#5d7480" fill-opacity="1"><g transform="translate(186.048245, 54.651073)"><g><path d="M 8.546875 -11.453125 L 8.546875 -4.3125 L 21 -4.3125 L 21 0 L 3.390625 0 L 3.390625 -26.09375 L 20.71875 -26.09375 L 20.71875 -21.765625 L 8.546875 -21.765625 L 8.546875 -15.671875 L 19.1875 -15.671875 L 19.1875 -11.453125 Z M 8.546875 -11.453125 "/></g></g></g><g fill="#5d7480" fill-opacity="1"><g transform="translate(208.479846, 54.651073)"><g><path d="M 5.546875 0 L 0.34375 0 L 5.953125 -10.203125 L 0.640625 -19.6875 L 5.921875 -19.6875 L 9.328125 -13.203125 L 9.75 -13.203125 L 13.171875 -19.6875 L 18.296875 -19.6875 L 13.140625 -10.203125 L 18.59375 0 L 13.328125 0 L 9.625 -7.1875 L 9.203125 -7.1875 Z M 5.546875 0 "/></g></g></g><g fill="#5d7480" fill-opacity="1"><g transform="translate(227.41376, 54.651073)"><g><path d="M 5.296875 -22.03125 C 4.410156 -22.03125 3.6875 -22.300781 3.125 -22.84375 C 2.5625 -23.382812 2.28125 -24.085938 2.28125 -24.953125 C 2.28125 -25.796875 2.5625 -26.488281 3.125 -27.03125 C 3.6875 -27.570312 4.410156 -27.84375 5.296875 -27.84375 C 5.890625 -27.84375 6.414062 -27.71875 6.875 -27.46875 C 7.34375 -27.21875 7.703125 -26.875 7.953125 -26.4375 C 8.210938 -26 8.34375 -25.503906 8.34375 -24.953125 C 8.34375 -24.390625 8.210938 -23.882812 7.953125 -23.4375 C 7.703125 -23 7.34375 -22.65625 6.875 -22.40625 C 6.414062 -22.15625 5.890625 -22.03125 5.296875 -22.03125 Z M 2.84375 0 L 2.84375 -19.6875 L 7.78125 -19.6875 L 7.78125 0 Z M 2.84375 0 "/></g></g></g><g fill="#5d7480" fill-opacity="1"><g transform="translate(238.013893, 54.651073)"><g><path d="M 13.578125 -4.6875 L 14.859375 -1.03125 C 14.328125 -0.59375 13.65625 -0.25 12.84375 0 C 12.039062 0.25 11.125 0.375 10.09375 0.375 C 7.96875 0.375 6.351562 -0.203125 5.25 -1.359375 C 4.144531 -2.523438 3.59375 -4.210938 3.59375 -6.421875 L 3.59375 -15.78125 L 0.59375 -15.78125 L 0.59375 -19.703125 L 3.59375 -19.703125 L 3.59375 -23.53125 L 8.53125 -24.34375 L 8.53125 -19.703125 L 14.109375 -19.703125 L 14.109375 -15.78125 L 8.53125 -15.78125 L 8.53125 -6.78125 C 8.53125 -5.800781 8.734375 -5.085938 9.140625 -4.640625 C 9.546875 -4.203125 10.132812 -3.984375 10.90625 -3.984375 C 11.78125 -3.984375 12.546875 -4.21875 13.203125 -4.6875 Z M 13.578125 -4.6875 "/></g></g></g></svg>