<svg xmlns="http://www.w3.org/2000/svg" xmlns:xlink="http://www.w3.org/1999/xlink" width="611" zoomAndPan="magnify" viewBox="0 0 458.25 89.249998" height="119" preserveAspectRatio="xMidYMid meet" version="1.0"><defs><g/><clipPath id="986ddb88f0"><path d="M 5.40625 0 L 455.75 0 L 455.75 88.140625 L 5.40625 88.140625 Z M 5.40625 0 " clip-rule="nonzero"/></clipPath><clipPath id="b78bd65116"><path d="M 49.476562 0 L 411.679688 0 C 423.367188 0 434.578125 4.644531 442.839844 12.90625 C 451.105469 21.171875 455.75 32.382812 455.75 44.070312 C 455.75 55.757812 451.105469 66.96875 442.839844 75.234375 C 434.578125 83.496094 423.367188 88.140625 411.679688 88.140625 L 49.476562 88.140625 C 37.789062 88.140625 26.578125 83.496094 18.3125 75.234375 C 10.050781 66.96875 5.40625 55.757812 5.40625 44.070312 C 5.40625 32.382812 10.050781 21.171875 18.3125 12.90625 C 26.578125 4.644531 37.789062 0 49.476562 0 Z M 49.476562 0 " clip-rule="nonzero"/></clipPath><clipPath id="e6454107b0"><path d="M 5.421875 0 L 455.96875 0 L 455.96875 88.507812 L 5.421875 88.507812 Z M 5.421875 0 " clip-rule="nonzero"/></clipPath><clipPath id="885a639f18"><path d="M 49.488281 0 L 411.664062 0 C 423.351562 0 434.558594 4.644531 442.824219 12.90625 C 451.089844 21.171875 455.730469 32.378906 455.730469 44.066406 C 455.730469 55.753906 451.089844 66.964844 442.824219 75.226562 C 434.558594 83.492188 423.351562 88.132812 411.664062 88.132812 L 49.488281 88.132812 C 37.800781 88.132812 26.59375 83.492188 18.328125 75.226562 C 10.0625 66.964844 5.421875 55.753906 5.421875 44.066406 C 5.421875 32.378906 10.0625 21.171875 18.328125 12.90625 C 26.59375 4.644531 37.800781 0 49.488281 0 Z M 49.488281 0 " clip-rule="nonzero"/></clipPath></defs><g clip-path="url(#986ddb88f0)"><g clip-path="url(#b78bd65116)"><path fill="#b5cedb" d="M 5.40625 0 L 455.75 0 L 455.75 88.140625 L 5.40625 88.140625 Z M 5.40625 0 " fill-opacity="1" fill-rule="nonzero"/></g></g><g clip-path="url(#e6454107b0)"><g clip-path="url(#885a639f18)"><path stroke-linecap="butt" transform="matrix(0.74375, 0, 0, 0.74375, 5.421599, 0.000000991667)" fill="none" stroke-linejoin="miter" d="M 59.249324 -0.00000133333 L 546.208389 -0.00000133333 C 561.922675 -0.00000133333 576.990954 6.244747 588.1044 17.352941 C 599.217846 28.466387 605.457342 43.534665 605.457342 59.248952 C 605.457342 74.963239 599.217846 90.036769 588.1044 101.144963 C 576.990954 112.258409 561.922675 118.497905 546.208389 118.497905 L 59.249324 118.497905 C 43.535037 118.497905 28.466759 112.258409 17.353313 101.144963 C 6.239867 90.036769 0.000370553 74.963239 0.000370553 59.248952 C 0.000370553 43.534665 6.239867 28.466387 17.353313 17.352941 C 28.466759 6.244747 43.535037 -0.00000133333 59.249324 -0.00000133333 Z M 59.249324 -0.00000133333 " stroke="#425b69" stroke-width="20" stroke-opacity="1" stroke-miterlimit="4"/></g></g><g fill="#5d7480" fill-opacity="1"><g transform="translate(163.119985, 55.953973)"><g><path d="M 20.109375 -16.171875 L 20.109375 -25.921875 L 25.21875 -25.921875 L 25.21875 0 L 20.109375 0 L 20.109375 -11.8125 L 8.5 -11.8125 L 8.5 0 L 3.375 0 L 3.375 -25.921875 L 8.5 -25.921875 L 8.5 -16.171875 Z M 20.109375 -16.171875 "/></g></g></g><g fill="#5d7480" fill-opacity="1"><g transform="translate(191.72232, 55.953973)"><g><path d="M 14.125 0.375 C 11.75 0.375 9.65625 -0.109375 7.84375 -1.078125 C 6.03125 -2.046875 4.609375 -3.523438 3.578125 -5.515625 C 2.546875 -7.515625 2.03125 -10 2.03125 -12.96875 C 2.03125 -15.925781 2.546875 -18.398438 3.578125 -20.390625 C 4.609375 -22.390625 6.03125 -23.875 7.84375 -24.84375 C 9.65625 -25.8125 11.75 -26.296875 14.125 -26.296875 C 16.5 -26.296875 18.59375 -25.8125 20.40625 -24.84375 C 22.21875 -23.882812 23.632812 -22.40625 24.65625 -20.40625 C 25.675781 -18.40625 26.1875 -15.925781 26.1875 -12.96875 C 26.1875 -10 25.675781 -7.515625 24.65625 -5.515625 C 23.632812 -3.515625 22.21875 -2.03125 20.40625 -1.0625 C 18.59375 -0.101562 16.5 0.375 14.125 0.375 Z M 14.125 -4.078125 C 16.320312 -4.078125 18 -4.78125 19.15625 -6.1875 C 20.320312 -7.601562 20.90625 -9.863281 20.90625 -12.96875 C 20.90625 -16.0625 20.320312 -18.316406 19.15625 -19.734375 C 18 -21.148438 16.320312 -21.859375 14.125 -21.859375 C 11.914062 -21.859375 10.226562 -21.148438 9.0625 -19.734375 C 7.90625 -18.316406 7.328125 -16.0625 7.328125 -12.96875 C 7.328125 -9.863281 7.90625 -7.601562 9.0625 -6.1875 C 10.226562 -4.78125 11.914062 -4.078125 14.125 -4.078125 Z M 14.125 -4.078125 "/></g></g></g><g fill="#5d7480" fill-opacity="1"><g transform="translate(219.970008, 55.953973)"><g><path d="M 8.0625 0 L 3.375 0 L 3.375 -25.921875 L 10.078125 -25.921875 L 16.625 -6.859375 L 17 -6.859375 L 23.53125 -25.921875 L 30.078125 -25.921875 L 30.078125 0 L 25.21875 0 L 25.21875 -17.125 L 24.765625 -17.203125 L 18.78125 0 L 14.5 0 L 8.515625 -17.203125 L 8.0625 -17.125 Z M 8.0625 0 "/></g></g></g><g fill="#5d7480" fill-opacity="1"><g transform="translate(253.431016, 55.953973)"><g><path d="M 8.5 -11.390625 L 8.5 -4.296875 L 20.875 -4.296875 L 20.875 0 L 3.375 0 L 3.375 -25.921875 L 20.578125 -25.921875 L 20.578125 -21.625 L 8.5 -21.625 L 8.5 -15.5625 L 19.0625 -15.5625 L 19.0625 -11.390625 Z M 8.5 -11.390625 "/></g></g></g></svg>