<svg xmlns="http://www.w3.org/2000/svg" xmlns:xlink="http://www.w3.org/1999/xlink" width="606" zoomAndPan="magnify" viewBox="0 0 454.5 89.249998" height="119" preserveAspectRatio="xMidYMid meet" version="1.0"><defs><g/><clipPath id="ef9cd800b9"><path d="M 1.644531 0 L 451.992188 0 L 451.992188 88.140625 L 1.644531 88.140625 Z M 1.644531 0 " clip-rule="nonzero"/></clipPath><clipPath id="b78b29b7c9"><path d="M 45.714844 0 L 407.917969 0 C 419.605469 0 430.816406 4.644531 439.082031 12.90625 C 447.347656 21.171875 451.988281 32.382812 451.988281 44.070312 C 451.988281 55.757812 447.347656 66.96875 439.082031 75.234375 C 430.816406 83.496094 419.605469 88.140625 407.917969 88.140625 L 45.714844 88.140625 C 34.027344 88.140625 22.820312 83.496094 14.554688 75.234375 C 6.289062 66.96875 1.644531 55.757812 1.644531 44.070312 C 1.644531 32.382812 6.289062 21.171875 14.554688 12.90625 C 22.820312 4.644531 34.027344 0 45.714844 0 Z M 45.714844 0 " clip-rule="nonzero"/></clipPath><clipPath id="221edbdcb0"><path d="M 1.660156 0 L 452 0 L 452 88.507812 L 1.660156 88.507812 Z M 1.660156 0 " clip-rule="nonzero"/></clipPath><clipPath id="362ce15ad5"><path d="M 45.726562 0 L 407.902344 0 C 419.589844 0 430.800781 4.644531 439.0625 12.90625 C 447.328125 21.171875 451.972656 32.378906 451.972656 44.066406 C 451.972656 55.753906 447.328125 66.964844 439.0625 75.226562 C 430.800781 83.492188 419.589844 88.132812 407.902344 88.132812 L 45.726562 88.132812 C 34.042969 88.132812 22.832031 83.492188 14.566406 75.226562 C 6.304688 66.964844 1.660156 55.753906 1.660156 44.066406 C 1.660156 32.378906 6.304688 21.171875 14.566406 12.90625 C 22.832031 4.644531 34.042969 0 45.726562 0 Z M 45.726562 0 " clip-rule="nonzero"/></clipPath></defs><g clip-path="url(#ef9cd800b9)"><g clip-path="url(#b78b29b7c9)"><path fill="#ffffff" d="M 1.644531 0 L 451.992188 0 L 451.992188 88.140625 L 1.644531 88.140625 Z M 1.644531 0 " fill-opacity="1" fill-rule="nonzero"/></g></g><g clip-path="url(#221edbdcb0)"><g clip-path="url(#362ce15ad5)"><path stroke-linecap="butt" transform="matrix(0.74375, 0, 0, 0.74375, 1.661275, 0.000000991667)" fill="none" stroke-linejoin="miter" d="M 59.247449 -0.00000133333 L 546.206514 -0.00000133333 C 561.9208 -0.00000133333 576.994331 6.244747 588.102525 17.352941 C 599.215971 28.466387 605.460719 43.534665 605.460719 59.248952 C 605.460719 74.963239 599.215971 90.036769 588.102525 101.144963 C 576.994331 112.258409 561.9208 118.497905 546.206514 118.497905 L 59.247449 118.497905 C 43.538414 118.497905 28.464884 112.258409 17.351438 101.144963 C 6.243244 90.036769 -0.00150452 74.963239 -0.00150452 59.248952 C -0.00150452 43.534665 6.243244 28.466387 17.351438 17.352941 C 28.464884 6.244747 43.538414 -0.00000133333 59.247449 -0.00000133333 Z M 59.247449 -0.00000133333 " stroke="#425b69" stroke-width="20" stroke-opacity="1" stroke-miterlimit="4"/></g></g><g fill="#5d7480" fill-opacity="1"><g transform="translate(167.013492, 55.593974)"><g><path d="M 20.109375 -16.171875 L 20.109375 -25.921875 L 25.21875 -25.921875 L 25.21875 0 L 20.109375 0 L 20.109375 -11.8125 L 8.5 -11.8125 L 8.5 0 L 3.375 0 L 3.375 -25.921875 L 8.5 -25.921875 L 8.5 -16.171875 Z M 20.109375 -16.171875 "/></g></g></g><g fill="#5d7480" fill-opacity="1"><g transform="translate(195.615828, 55.593974)"><g><path d="M 14.125 0.375 C 11.75 0.375 9.65625 -0.109375 7.84375 -1.078125 C 6.03125 -2.046875 4.609375 -3.523438 3.578125 -5.515625 C 2.546875 -7.515625 2.03125 -10 2.03125 -12.96875 C 2.03125 -15.925781 2.546875 -18.398438 3.578125 -20.390625 C 4.609375 -22.390625 6.03125 -23.875 7.84375 -24.84375 C 9.65625 -25.8125 11.75 -26.296875 14.125 -26.296875 C 16.5 -26.296875 18.59375 -25.8125 20.40625 -24.84375 C 22.21875 -23.882812 23.632812 -22.40625 24.65625 -20.40625 C 25.675781 -18.40625 26.1875 -15.925781 26.1875 -12.96875 C 26.1875 -10 25.675781 -7.515625 24.65625 -5.515625 C 23.632812 -3.515625 22.21875 -2.03125 20.40625 -1.0625 C 18.59375 -0.101562 16.5 0.375 14.125 0.375 Z M 14.125 -4.078125 C 16.320312 -4.078125 18 -4.78125 19.15625 -6.1875 C 20.320312 -7.601562 20.90625 -9.863281 20.90625 -12.96875 C 20.90625 -16.0625 20.320312 -18.316406 19.15625 -19.734375 C 18 -21.148438 16.320312 -21.859375 14.125 -21.859375 C 11.914062 -21.859375 10.226562 -21.148438 9.0625 -19.734375 C 7.90625 -18.316406 7.328125 -16.0625 7.328125 -12.96875 C 7.328125 -9.863281 7.90625 -7.601562 9.0625 -6.1875 C 10.226562 -4.78125 11.914062 -4.078125 14.125 -4.078125 Z M 14.125 -4.078125 "/></g></g></g><g fill="#5d7480" fill-opacity="1"><g transform="translate(223.863516, 55.593974)"><g><path d="M 8.0625 0 L 3.375 0 L 3.375 -25.921875 L 10.078125 -25.921875 L 16.625 -6.859375 L 17 -6.859375 L 23.53125 -25.921875 L 30.078125 -25.921875 L 30.078125 0 L 25.21875 0 L 25.21875 -17.125 L 24.765625 -17.203125 L 18.78125 0 L 14.5 0 L 8.515625 -17.203125 L 8.0625 -17.125 Z M 8.0625 0 "/></g></g></g><g fill="#5d7480" fill-opacity="1"><g transform="translate(257.324524, 55.593974)"><g><path d="M 8.5 -11.390625 L 8.5 -4.296875 L 20.875 -4.296875 L 20.875 0 L 3.375 0 L 3.375 -25.921875 L 20.578125 -25.921875 L 20.578125 -21.625 L 8.5 -21.625 L 8.5 -15.5625 L 19.0625 -15.5625 L 19.0625 -11.390625 Z M 8.5 -11.390625 "/></g></g></g></svg>